<?xml version="1.0" standalone="no"?><!DOCTYPE svg PUBLIC "-//W3C//DTD SVG 1.1//EN" "http://www.w3.org/Graphics/SVG/1.1/DTD/svg11.dtd"><svg t="1531482588892" class="icon" style="" viewBox="0 0 1024 1024" version="1.1" xmlns="http://www.w3.org/2000/svg" p-id="8168" xmlns:xlink="http://www.w3.org/1999/xlink" width="18" height="18"><defs><style type="text/css"></style></defs><path d="M511.949346 110.451578c225.647203 0 409.211962 183.533037 409.211962 409.202753 0 225.600131-183.564759 409.195589-409.211962 409.195589-225.639017 0-409.219125-183.595458-409.219125-409.195589C102.730221 293.983591 286.31033 110.451578 511.949346 110.451578M511.949346 34.761712c-267.816628 0-484.916155 217.09134-484.916155 484.892619 0 267.794116 217.099527 484.900805 484.916155 484.900805 267.809465 0 484.916155-217.10669 484.916155-484.900805C996.865501 251.853052 779.758812 34.761712 511.949346 34.761712L511.949346 34.761712 511.949346 34.761712zM776.884344 443.965487c0 23.645536-71.789023 0-113.539916 0-41.767266 0-75.704193 26.605961-75.704193 0 0-26.613124 33.936927-75.697029 75.704193-75.697029C705.095321 368.268458 776.884344 420.311765 776.884344 443.965487L776.884344 443.965487zM247.021511 443.965487c0 23.645536 71.773673 0 113.540939 0 41.760103 0 75.688843 26.605961 75.688843 0 0-26.613124-33.929764-75.697029-75.688843-75.697029C318.796208 368.268458 247.021511 420.311765 247.021511 443.965487L247.021511 443.965487zM770.886747 595.343173c0 122.113175-87.148849 258.9374-258.9374 258.9374s-258.9374-136.824225-258.9374-258.9374c0 0 83.305311 43.835368 258.9374 43.835368C687.589622 639.178541 770.886747 595.343173 770.886747 595.343173L770.886747 595.343173zM770.886747 595.343173" fill="#1989ac" p-id="8169"></path></svg>
