<?xml version="1.0" standalone="no"?><!DOCTYPE svg PUBLIC "-//W3C//DTD SVG 1.1//EN" "http://www.w3.org/Graphics/SVG/1.1/DTD/svg11.dtd"><svg t="1530882464358" class="icon" style="" viewBox="0 0 1024 1024" version="1.1" xmlns="http://www.w3.org/2000/svg" p-id="11004" xmlns:xlink="http://www.w3.org/1999/xlink" width="16" height="16"><defs><style type="text/css"></style></defs><path d="M623.73898355 511.55258238c0 62.14759591-50.37963018 112.52790503-112.52722611 112.52790504-62.14759591 0-112.52790503-50.38030911-112.52790502-112.52790504 0-62.14691698 50.38030911-112.52722612 112.52790502-112.52722609C573.35935337 399.02535629 623.73898355 449.4056654 623.73898355 511.55258238z" p-id="11005" fill="#e75151"></path><path d="M511.89272842 814.18069349c-41.03002791 0-80.84204794-8.03993828-118.33075528-23.89576662-36.20076924-15.31132311-68.70813669-37.22731769-96.62047774-65.13897979S247.11383869 664.72555965 231.80251558 628.52546935c-15.85582828-37.48870734-23.89576659-77.30004844-23.89576659-118.33075528 0-41.03002791 8.03993828-80.84204794 23.89576659-118.33075528 15.31132311-36.20076924 37.22799664-68.70813669 65.13965875-96.62047772s60.41970849-49.82833565 96.62047773-65.13965876c37.48802841-15.85582828 77.30004844-23.89576659 118.33075528-23.89576657 41.03070683 0 80.84204794 8.03993828 118.33075527 23.89576657 36.2000903 15.31132311 68.70813669 37.22799664 96.62047774 65.13965876s49.82833565 60.41970849 65.13897981 96.62047772c15.85582828 37.48802841 23.89576659 77.30004844 23.89576659 118.33075528 0 41.03070683-8.03993828 80.84204794-23.89576659 118.33075528-15.31132311 36.2000903-37.22731769 68.70813669-65.13897981 96.62047773s-60.41970849 49.82833565-96.62047774 65.13897979C592.73477634 806.14075521 552.92275631 814.18069349 511.89272842 814.18069349zM511.89272842 240.84999216c-148.51684682 0-269.34472192 120.82719617-269.34472195 269.34472193 0 148.51684682 120.82719617 269.34472192 269.34472195 269.34472191 148.51684682 0 269.34472192-120.8278751 269.34472187-269.34472193C781.23745034 361.67718832 660.40957523 240.84999216 511.89272842 240.84999216z" p-id="11006" fill="#e75151"></path></svg>