<?xml version="1.0" standalone="no"?><!DOCTYPE svg PUBLIC "-//W3C//DTD SVG 1.1//EN" "http://www.w3.org/Graphics/SVG/1.1/DTD/svg11.dtd"><svg t="1531482609407" class="icon" style="" viewBox="0 0 1024 1024" version="1.1" xmlns="http://www.w3.org/2000/svg" p-id="8340" xmlns:xlink="http://www.w3.org/1999/xlink" width="40" height="40"><defs><style type="text/css"></style></defs><path d="M512 29.361c-266.535 0-482.639 216.101-482.639 482.639s216.101 482.639 482.639 482.639 482.639-216.101 482.639-482.639-216.101-482.639-482.639-482.639zM692.99 270.679c33.292 0 60.331 40.531 60.331 90.494s-27.037 90.494-60.331 90.494-60.331-40.531-60.331-90.494 27.037-90.494 60.331-90.494zM265.028 377.525c-0.029-32.929 39.919-53.996 96.155-53.996s96.175 21.065 96.175 53.996c0 7.008 3.588 40.531-0.211 46.746-13.998-23.157-51.642-39.738-95.977-39.738s-81.979 16.579-95.977 39.738c-3.742-6.213-0.171-39.738-0.171-46.746zM501.009 813.649c-112.386 0-211.034-60.562-266.657-151.739 66.372 51.872 183.403 62.039 306.656 37.706 132.182-26.134 234.815-86.252 271.897-166.439-20.431 158.316-152.262 280.474-311.894 280.474z" p-id="8341" fill="#00587a"></path></svg>
